<svg version="1.1" id="Layer_1" xmlns="http://www.w3.org/2000/svg" xmlns:xlink="http://www.w3.org/1999/xlink" x="0px" y="0px"
	 width="100%" viewBox="0 0 64 64" enable-background="new 0 0 64 64" xml:space="preserve">
<path fill="#FFFFFF" opacity="1.000000" stroke="none" 
	d="
M46.001724,65.000000 
	C30.667978,65.000000 15.834697,65.000000 1.001061,65.000000 
	C1.000708,43.667213 1.000708,22.334427 1.000354,1.001230 
	C22.332710,1.000820 43.665421,1.000820 64.998596,1.000410 
	C64.999069,22.332636 64.999069,43.665272 64.999535,64.998955 
	C58.834064,65.000000 52.668129,65.000000 46.001724,65.000000 
M48.381611,62.895454 
	C51.795044,61.319893 55.092484,59.350952 58.660290,58.298935 
	C61.296791,57.521526 62.057201,56.375301 62.037590,53.834808 
	C61.950245,42.519753 61.392277,31.160473 62.192535,19.901625 
	C62.828140,10.959311 59.934128,6.320275 51.082165,4.264751 
	C47.681686,3.475122 45.844109,3.372991 43.521690,5.904133 
	C37.264656,12.723508 30.789618,19.342859 24.076555,26.381916 
	C20.149418,23.215044 16.522408,19.882130 12.460883,17.209547 
	C10.762322,16.091850 8.102610,15.938728 5.948751,16.128504 
	C2.926224,16.394817 2.940540,18.930202 2.969101,21.377720 
	C3.054531,28.698666 2.983583,36.021301 3.007948,43.343163 
	C3.016914,46.037342 2.391674,48.642345 6.087705,50.179558 
	C9.571280,51.628410 11.261911,49.826305 13.426895,48.085320 
	C16.948502,45.253403 20.535240,42.502480 24.422968,39.460339 
	C27.320599,42.872227 29.675682,46.078388 32.470066,48.840038 
	C37.381138,53.693577 42.560989,58.275154 48.381611,62.895454 
z"/>
<path fill="#4668C5" opacity="1.000000" stroke="none" 
	d="
M48.004944,62.933044 
	C42.560989,58.275154 37.381138,53.693577 32.470066,48.840038 
	C29.675682,46.078388 27.320599,42.872227 24.422968,39.460339 
	C20.535240,42.502480 16.948502,45.253403 13.426895,48.085320 
	C11.261911,49.826305 9.571280,51.628410 6.087705,50.179558 
	C2.391674,48.642345 3.016914,46.037342 3.007948,43.343163 
	C2.983583,36.021301 3.054531,28.698666 2.969101,21.377720 
	C2.940540,18.930202 2.926224,16.394817 5.948751,16.128504 
	C8.102610,15.938728 10.762322,16.091850 12.460883,17.209547 
	C16.522408,19.882130 20.149418,23.215044 24.076555,26.381916 
	C30.789618,19.342859 37.264656,12.723508 43.521690,5.904133 
	C45.844109,3.372991 47.681686,3.475122 51.082165,4.264751 
	C59.934128,6.320275 62.828140,10.959311 62.192535,19.901625 
	C61.392277,31.160473 61.950245,42.519753 62.037590,53.834808 
	C62.057201,56.375301 61.296791,57.521526 58.660290,58.298935 
	C55.092484,59.350952 51.795044,61.319893 48.004944,62.933044 
M45.998535,40.639046 
	C45.998535,35.007835 45.998535,29.376625 45.998535,22.643858 
	C41.157982,26.357880 36.933815,29.598969 32.574268,32.943928 
	C36.424583,36.094090 39.649727,38.858311 43.043312,41.397408 
	C43.679474,41.873383 44.989208,41.449108 45.998535,40.639046 
M16.016582,31.531639 
	C14.232228,29.753777 12.447874,27.975916 10.251936,25.787970 
	C10.251936,30.979343 10.251936,35.185081 10.251936,39.390820 
	C10.602004,39.577286 10.952072,39.763752 11.302140,39.950218 
	C13.039260,37.314690 14.776381,34.679161 16.016582,31.531639 
z"/>
<path fill="#FFFFFF" opacity="1.000000" stroke="none" 
	d="
M45.993320,41.039658 
	C44.989208,41.449108 43.679474,41.873383 43.043312,41.397408 
	C39.649727,38.858311 36.424583,36.094090 32.574268,32.943928 
	C36.933815,29.598969 41.157982,26.357880 45.998535,22.643858 
	C45.998535,29.376625 45.998535,35.007835 45.993320,41.039658 
z"/>
<path fill="#FFFFFF" opacity="1.000000" stroke="none" 
	d="
M16.265041,31.787636 
	C14.776381,34.679161 13.039260,37.314690 11.302140,39.950218 
	C10.952072,39.763752 10.602004,39.577286 10.251936,39.390820 
	C10.251936,35.185081 10.251936,30.979343 10.251936,25.787970 
	C12.447874,27.975916 14.232228,29.753777 16.265041,31.787636 
z"/>
</svg>